<mxfile host="app.diagrams.net" agent="Mozilla/5.0 (Macintosh; Intel Mac OS X 10_15_7) AppleWebKit/537.36 (KHTML, like Gecko) Chrome/135.0.0.0 Safari/537.36" version="26.2.14">
  <diagram id="Ht1M8jgEwFfnCIfOTk4-" name="Page-1">
    <mxGraphModel dx="1198" dy="811" grid="1" gridSize="10" guides="1" tooltips="1" connect="1" arrows="1" fold="1" page="1" pageScale="1" pageWidth="827" pageHeight="1169" math="0" shadow="0">
      <root>
        <mxCell id="0" />
        <mxCell id="1" parent="0" />
        <mxCell id="MyaymoHof0GxMbUrsLtj-1" value="Region" style="points=[[0,0],[0.25,0],[0.5,0],[0.75,0],[1,0],[1,0.25],[1,0.5],[1,0.75],[1,1],[0.75,1],[0.5,1],[0.25,1],[0,1],[0,0.75],[0,0.5],[0,0.25]];outlineConnect=0;gradientColor=none;html=1;whiteSpace=wrap;fontSize=12;fontStyle=0;container=1;pointerEvents=0;collapsible=0;recursiveResize=0;shape=mxgraph.aws4.group;grIcon=mxgraph.aws4.group_region;strokeColor=#00A4A6;fillColor=none;verticalAlign=top;align=left;spacingLeft=30;fontColor=#147EBA;dashed=1;" vertex="1" parent="1">
          <mxGeometry x="40" y="30" width="750" height="700" as="geometry" />
        </mxCell>
        <mxCell id="MyaymoHof0GxMbUrsLtj-3" value="VPC" style="points=[[0,0],[0.25,0],[0.5,0],[0.75,0],[1,0],[1,0.25],[1,0.5],[1,0.75],[1,1],[0.75,1],[0.5,1],[0.25,1],[0,1],[0,0.75],[0,0.5],[0,0.25]];outlineConnect=0;gradientColor=none;html=1;whiteSpace=wrap;fontSize=12;fontStyle=0;container=1;pointerEvents=0;collapsible=0;recursiveResize=0;shape=mxgraph.aws4.group;grIcon=mxgraph.aws4.group_vpc2;strokeColor=#8C4FFF;fillColor=none;verticalAlign=top;align=left;spacingLeft=30;fontColor=#AAB7B8;dashed=0;" vertex="1" parent="MyaymoHof0GxMbUrsLtj-1">
          <mxGeometry x="120" y="130" width="538" height="470" as="geometry" />
        </mxCell>
        <mxCell id="MyaymoHof0GxMbUrsLtj-9" value="Public subnet" style="points=[[0,0],[0.25,0],[0.5,0],[0.75,0],[1,0],[1,0.25],[1,0.5],[1,0.75],[1,1],[0.75,1],[0.5,1],[0.25,1],[0,1],[0,0.75],[0,0.5],[0,0.25]];outlineConnect=0;gradientColor=none;html=1;whiteSpace=wrap;fontSize=12;fontStyle=0;container=1;pointerEvents=0;collapsible=0;recursiveResize=0;shape=mxgraph.aws4.group;grIcon=mxgraph.aws4.group_security_group;grStroke=0;strokeColor=#7AA116;fillColor=#F2F6E8;verticalAlign=top;align=left;spacingLeft=30;fontColor=#248814;dashed=0;" vertex="1" parent="MyaymoHof0GxMbUrsLtj-3">
          <mxGeometry x="180" y="100" width="210" height="150" as="geometry" />
        </mxCell>
        <mxCell id="MyaymoHof0GxMbUrsLtj-17" value="" style="sketch=0;points=[[0,0,0],[0.25,0,0],[0.5,0,0],[0.75,0,0],[1,0,0],[0,1,0],[0.25,1,0],[0.5,1,0],[0.75,1,0],[1,1,0],[0,0.25,0],[0,0.5,0],[0,0.75,0],[1,0.25,0],[1,0.5,0],[1,0.75,0]];outlineConnect=0;fontColor=#232F3E;fillColor=#ED7100;strokeColor=#ffffff;dashed=0;verticalLabelPosition=bottom;verticalAlign=top;align=center;html=1;fontSize=12;fontStyle=0;aspect=fixed;shape=mxgraph.aws4.resourceIcon;resIcon=mxgraph.aws4.ec2;" vertex="1" parent="MyaymoHof0GxMbUrsLtj-9">
          <mxGeometry x="22" y="50" width="48" height="48" as="geometry" />
        </mxCell>
        <mxCell id="MyaymoHof0GxMbUrsLtj-19" value="" style="sketch=0;outlineConnect=0;fontColor=#232F3E;gradientColor=none;fillColor=#8C4FFF;strokeColor=none;dashed=0;verticalLabelPosition=bottom;verticalAlign=top;align=center;html=1;fontSize=12;fontStyle=0;aspect=fixed;pointerEvents=1;shape=mxgraph.aws4.nat_gateway;" vertex="1" parent="MyaymoHof0GxMbUrsLtj-9">
          <mxGeometry x="137" y="46" width="58" height="58" as="geometry" />
        </mxCell>
        <mxCell id="MyaymoHof0GxMbUrsLtj-11" value="Private subnet" style="points=[[0,0],[0.25,0],[0.5,0],[0.75,0],[1,0],[1,0.25],[1,0.5],[1,0.75],[1,1],[0.75,1],[0.5,1],[0.25,1],[0,1],[0,0.75],[0,0.5],[0,0.25]];outlineConnect=0;gradientColor=none;html=1;whiteSpace=wrap;fontSize=12;fontStyle=0;container=1;pointerEvents=0;collapsible=0;recursiveResize=0;shape=mxgraph.aws4.group;grIcon=mxgraph.aws4.group_security_group;grStroke=0;strokeColor=#00A4A6;fillColor=#E6F6F7;verticalAlign=top;align=left;spacingLeft=30;fontColor=#147EBA;dashed=0;" vertex="1" parent="MyaymoHof0GxMbUrsLtj-3">
          <mxGeometry x="220" y="290" width="130" height="130" as="geometry" />
        </mxCell>
        <mxCell id="MyaymoHof0GxMbUrsLtj-16" value="" style="sketch=0;points=[[0,0,0],[0.25,0,0],[0.5,0,0],[0.75,0,0],[1,0,0],[0,1,0],[0.25,1,0],[0.5,1,0],[0.75,1,0],[1,1,0],[0,0.25,0],[0,0.5,0],[0,0.75,0],[1,0.25,0],[1,0.5,0],[1,0.75,0]];outlineConnect=0;fontColor=#232F3E;fillColor=#ED7100;strokeColor=#ffffff;dashed=0;verticalLabelPosition=bottom;verticalAlign=top;align=center;html=1;fontSize=12;fontStyle=0;aspect=fixed;shape=mxgraph.aws4.resourceIcon;resIcon=mxgraph.aws4.ec2;" vertex="1" parent="MyaymoHof0GxMbUrsLtj-11">
          <mxGeometry x="41" y="50" width="48" height="48" as="geometry" />
        </mxCell>
        <mxCell id="MyaymoHof0GxMbUrsLtj-20" value="Security group" style="fillColor=none;strokeColor=#DD3522;verticalAlign=top;fontStyle=0;fontColor=#DD3522;whiteSpace=wrap;html=1;align=left;" vertex="1" parent="MyaymoHof0GxMbUrsLtj-3">
          <mxGeometry x="120" y="320" width="301.5" height="80" as="geometry" />
        </mxCell>
        <mxCell id="MyaymoHof0GxMbUrsLtj-21" value="Security group" style="fillColor=none;strokeColor=#DD3522;verticalAlign=top;fontStyle=0;fontColor=#DD3522;whiteSpace=wrap;html=1;align=left;" vertex="1" parent="MyaymoHof0GxMbUrsLtj-3">
          <mxGeometry x="90" y="140" width="210" height="80" as="geometry" />
        </mxCell>
        <mxCell id="MyaymoHof0GxMbUrsLtj-22" value="" style="endArrow=classic;html=1;rounded=0;exitX=0.75;exitY=0;exitDx=0;exitDy=0;" edge="1" parent="MyaymoHof0GxMbUrsLtj-3" source="MyaymoHof0GxMbUrsLtj-20" target="MyaymoHof0GxMbUrsLtj-19">
          <mxGeometry width="50" height="50" relative="1" as="geometry">
            <mxPoint x="267" y="340" as="sourcePoint" />
            <mxPoint x="317" y="290" as="targetPoint" />
          </mxGeometry>
        </mxCell>
        <mxCell id="MyaymoHof0GxMbUrsLtj-23" value="" style="endArrow=classic;startArrow=classic;html=1;rounded=0;exitX=0.25;exitY=0;exitDx=0;exitDy=0;entryX=0.5;entryY=1;entryDx=0;entryDy=0;" edge="1" parent="MyaymoHof0GxMbUrsLtj-3" source="MyaymoHof0GxMbUrsLtj-20" target="MyaymoHof0GxMbUrsLtj-21">
          <mxGeometry width="50" height="50" relative="1" as="geometry">
            <mxPoint x="267" y="340" as="sourcePoint" />
            <mxPoint x="317" y="290" as="targetPoint" />
          </mxGeometry>
        </mxCell>
        <mxCell id="MyaymoHof0GxMbUrsLtj-29" value="" style="sketch=0;outlineConnect=0;fontColor=#232F3E;gradientColor=none;fillColor=#8C4FFF;strokeColor=none;dashed=0;verticalLabelPosition=bottom;verticalAlign=top;align=center;html=1;fontSize=12;fontStyle=0;aspect=fixed;pointerEvents=1;shape=mxgraph.aws4.internet_gateway;" vertex="1" parent="MyaymoHof0GxMbUrsLtj-1">
          <mxGeometry x="360" y="70" width="90" height="90" as="geometry" />
        </mxCell>
        <mxCell id="MyaymoHof0GxMbUrsLtj-25" value="Default&amp;nbsp;&lt;span style=&quot;background-color: transparent; color: light-dark(rgb(221, 53, 34), rgb(255, 133, 117));&quot;&gt;Security group VPC&lt;/span&gt;" style="fillColor=none;strokeColor=#DD3522;verticalAlign=top;fontStyle=0;fontColor=#DD3522;whiteSpace=wrap;html=1;align=left;" vertex="1" parent="MyaymoHof0GxMbUrsLtj-1">
          <mxGeometry x="100" y="110" width="590" height="520" as="geometry" />
        </mxCell>
      </root>
    </mxGraphModel>
  </diagram>
</mxfile>
